<svg width="187" height="47" viewBox="0 0 187 47" fill="none" xmlns="http://www.w3.org/2000/svg">
<path d="M8.8584 37.55C5.89173 37.55 3.67507 36.7333 2.2084 35.1C0.741732 33.4333 0.00839854 30.9667 0.00839854 27.7V5.15C0.00839854 3.88333 0.325065 2.93333 0.958399 2.3C1.62507 1.63333 2.57507 1.3 3.8084 1.3C5.0084 1.3 5.92507 1.63333 6.5584 2.3C7.22507 2.93333 7.5584 3.88333 7.5584 5.15V27.4C7.5584 28.7667 7.84173 29.7833 8.4084 30.45C9.0084 31.0833 9.79173 31.4 10.7584 31.4C11.0251 31.4 11.2751 31.3833 11.5084 31.35C11.7417 31.3167 11.9917 31.3 12.2584 31.3C12.7917 31.2333 13.1584 31.4 13.3584 31.8C13.5917 32.1667 13.7084 32.9167 13.7084 34.05C13.7084 35.05 13.5084 35.8167 13.1084 36.35C12.7084 36.85 12.0917 37.1833 11.2584 37.35C10.9251 37.3833 10.5417 37.4167 10.1084 37.45C9.67507 37.5167 9.2584 37.55 8.8584 37.55ZM16.4588 37.4C15.2255 37.4 14.2755 37.05 13.6088 36.35C12.9755 35.6167 12.6588 34.6 12.6588 33.3V16.2C12.6588 14.8667 12.9755 13.85 13.6088 13.15C14.2755 12.4167 15.2255 12.05 16.4588 12.05C17.6588 12.05 18.5755 12.4167 19.2088 13.15C19.8755 13.85 20.2088 14.8667 20.2088 16.2V33.3C20.2088 34.6 19.8921 35.6167 19.2588 36.35C18.6255 37.05 17.6921 37.4 16.4588 37.4ZM16.4588 7.95C15.0588 7.95 13.9755 7.63333 13.2088 7C12.4755 6.33333 12.1088 5.4 12.1088 4.2C12.1088 2.96667 12.4755 2.03333 13.2088 1.4C13.9755 0.733331 15.0588 0.399997 16.4588 0.399997C17.8588 0.399997 18.9255 0.733331 19.6588 1.4C20.3921 2.03333 20.7588 2.96667 20.7588 4.2C20.7588 5.4 20.3921 6.33333 19.6588 7C18.9255 7.63333 17.8588 7.95 16.4588 7.95ZM33.8377 46.55C32.0377 46.55 30.3044 46.4 28.6377 46.1C27.0044 45.8 25.5544 45.35 24.2877 44.75C23.521 44.4167 22.971 43.9833 22.6377 43.45C22.3377 42.9167 22.2044 42.35 22.2377 41.75C22.3044 41.15 22.5044 40.6167 22.8377 40.15C23.2044 39.6833 23.6544 39.35 24.1877 39.15C24.721 38.9833 25.2877 39.0333 25.8877 39.3C27.3544 39.9667 28.7044 40.4 29.9377 40.6C31.2044 40.8 32.2877 40.9 33.1877 40.9C35.321 40.9 36.921 40.4167 37.9877 39.45C39.0544 38.4833 39.5877 37 39.5877 35V31.2H40.0377C39.5377 32.7333 38.5044 33.9833 36.9377 34.95C35.371 35.9167 33.6377 36.4 31.7377 36.4C29.5377 36.4 27.621 35.9 25.9877 34.9C24.3544 33.8667 23.0877 32.4333 22.1877 30.6C21.2877 28.7333 20.8377 26.5833 20.8377 24.15C20.8377 22.3167 21.0877 20.65 21.5877 19.15C22.121 17.65 22.8544 16.3667 23.7877 15.3C24.7544 14.2333 25.9044 13.4167 27.2377 12.85C28.6044 12.25 30.1044 11.95 31.7377 11.95C33.7044 11.95 35.4377 12.4333 36.9377 13.4C38.471 14.3333 39.4877 15.5667 39.9877 17.1L39.4877 18.7V15.85C39.4877 14.6167 39.8044 13.6833 40.4377 13.05C41.1044 12.3833 42.0377 12.05 43.2377 12.05C44.4377 12.05 45.3544 12.3833 45.9877 13.05C46.621 13.6833 46.9377 14.6167 46.9377 15.85V34.15C46.9377 38.25 45.8044 41.3333 43.5377 43.4C41.3044 45.5 38.071 46.55 33.8377 46.55ZM33.9877 30.75C35.121 30.75 36.0877 30.4833 36.8877 29.95C37.721 29.4167 38.371 28.6667 38.8377 27.7C39.3044 26.7 39.5377 25.5167 39.5377 24.15C39.5377 22.0833 39.021 20.4833 37.9877 19.35C36.9877 18.1833 35.6544 17.6 33.9877 17.6C32.8544 17.6 31.871 17.8667 31.0377 18.4C30.2044 18.9 29.5544 19.65 29.0877 20.65C28.6544 21.6167 28.4377 22.7833 28.4377 24.15C28.4377 26.2167 28.9377 27.8333 29.9377 29C30.9377 30.1667 32.2877 30.75 33.9877 30.75ZM60.8494 37.55C58.5494 37.55 56.6161 37.1667 55.0494 36.4C53.5161 35.6333 52.3661 34.5167 51.5994 33.05C50.8661 31.5833 50.4994 29.7333 50.4994 27.5V18.1H48.3994C47.4661 18.1 46.7327 17.85 46.1994 17.35C45.6994 16.85 45.4494 16.1667 45.4494 15.3C45.4494 14.3667 45.6994 13.6667 46.1994 13.2C46.7327 12.7 47.4661 12.45 48.3994 12.45H50.4994V8.65C50.4994 7.38333 50.8327 6.43333 51.4994 5.8C52.1661 5.13333 53.0994 4.8 54.2994 4.8C55.5327 4.8 56.4661 5.13333 57.0994 5.8C57.7327 6.43333 58.0494 7.38333 58.0494 8.65V12.45H62.7994C63.7327 12.45 64.4494 12.7 64.9494 13.2C65.4494 13.6667 65.6994 14.3667 65.6994 15.3C65.6994 16.1667 65.4494 16.85 64.9494 17.35C64.4494 17.85 63.7327 18.1 62.7994 18.1H58.0494V27.2C58.0494 28.6 58.3661 29.65 58.9994 30.35C59.6661 31.05 60.7161 31.4 62.1494 31.4C62.6494 31.4 63.1161 31.35 63.5494 31.25C63.9827 31.15 64.3827 31.0833 64.7494 31.05C65.2161 31.0167 65.5994 31.1667 65.8994 31.5C66.1994 31.8 66.3494 32.4833 66.3494 33.55C66.3494 34.35 66.2161 35.05 65.9494 35.65C65.6827 36.25 65.2161 36.6833 64.5494 36.95C64.1161 37.1167 63.5161 37.25 62.7494 37.35C62.0161 37.4833 61.3827 37.55 60.8494 37.55ZM73.3143 37.55C71.5143 37.55 69.8976 37.2 68.4643 36.5C67.0309 35.8 65.9143 34.85 65.1143 33.65C64.3143 32.45 63.9143 31.1 63.9143 29.6C63.9143 27.8 64.3809 26.3833 65.3143 25.35C66.2476 24.2833 67.7643 23.5333 69.8643 23.1C71.9643 22.6333 74.7476 22.4 78.2143 22.4H80.8643V26.3H78.2643C76.5643 26.3 75.1809 26.4 74.1143 26.6C73.0809 26.7667 72.3309 27.0667 71.8643 27.5C71.4309 27.9333 71.2143 28.5333 71.2143 29.3C71.2143 30.2333 71.5309 31 72.1643 31.6C72.8309 32.2 73.7809 32.5 75.0143 32.5C75.9809 32.5 76.8309 32.2833 77.5643 31.85C78.3309 31.3833 78.9309 30.7667 79.3643 30C79.7976 29.2 80.0143 28.3 80.0143 27.3V21.55C80.0143 20.0833 79.6809 19.05 79.0143 18.45C78.3476 17.8167 77.2143 17.5 75.6143 17.5C74.7143 17.5 73.7309 17.6167 72.6643 17.85C71.6309 18.05 70.4809 18.4 69.2143 18.9C68.4809 19.2333 67.8309 19.3167 67.2643 19.15C66.6976 18.95 66.2643 18.6167 65.9643 18.15C65.6643 17.65 65.5143 17.1167 65.5143 16.55C65.5143 15.95 65.6809 15.3833 66.0143 14.85C66.3476 14.2833 66.8976 13.8667 67.6643 13.6C69.2309 12.9667 70.6976 12.5333 72.0643 12.3C73.4643 12.0667 74.7476 11.95 75.9143 11.95C78.4809 11.95 80.5809 12.3333 82.2143 13.1C83.8809 13.8333 85.1309 14.9833 85.9643 16.55C86.7976 18.0833 87.2143 20.0667 87.2143 22.5V33.6C87.2143 34.8333 86.9143 35.7833 86.3143 36.45C85.7143 37.1167 84.8476 37.45 83.7143 37.45C82.5809 37.45 81.6976 37.1167 81.0643 36.45C80.4643 35.7833 80.1643 34.8333 80.1643 33.6V31.75L80.5143 32.05C80.3143 33.1833 79.8809 34.1667 79.2143 35C78.5809 35.8 77.7643 36.4333 76.7643 36.9C75.7643 37.3333 74.6143 37.55 73.3143 37.55ZM98.2463 37.55C96.7796 37.55 95.263 37.4167 93.6963 37.15C92.163 36.8833 90.763 36.4333 89.4963 35.8C88.8296 35.4667 88.3463 35.05 88.0463 34.55C87.7796 34.0167 87.663 33.4833 87.6963 32.95C87.7296 32.4167 87.8963 31.9333 88.1963 31.5C88.5296 31.0667 88.9463 30.7833 89.4463 30.65C89.9796 30.4833 90.563 30.5333 91.1963 30.8C92.563 31.3667 93.813 31.7667 94.9463 32C96.0796 32.2333 97.1963 32.35 98.2963 32.35C99.7296 32.35 100.763 32.1333 101.396 31.7C102.063 31.2333 102.396 30.6333 102.396 29.9C102.396 29.2333 102.18 28.7333 101.746 28.4C101.313 28.0667 100.68 27.8333 99.8463 27.7L94.5963 26.75C92.5296 26.3833 90.9296 25.6333 89.7963 24.5C88.6963 23.3333 88.1463 21.85 88.1463 20.05C88.1463 18.3833 88.613 16.95 89.5463 15.75C90.4796 14.5167 91.763 13.5833 93.3963 12.95C95.063 12.2833 96.9463 11.95 99.0463 11.95C100.546 11.95 101.93 12.0833 103.196 12.35C104.463 12.6167 105.68 13.05 106.846 13.65C107.446 13.95 107.863 14.35 108.096 14.85C108.363 15.35 108.446 15.8667 108.346 16.4C108.28 16.9333 108.08 17.4167 107.746 17.85C107.413 18.2833 106.98 18.5667 106.446 18.7C105.946 18.8333 105.363 18.7667 104.696 18.5C103.63 18 102.646 17.65 101.746 17.45C100.846 17.2167 99.9796 17.1 99.1463 17.1C97.6463 17.1 96.563 17.35 95.8963 17.85C95.2296 18.3167 94.8963 18.9167 94.8963 19.65C94.8963 20.2167 95.0796 20.7 95.4463 21.1C95.8463 21.4667 96.4463 21.7167 97.2463 21.85L102.496 22.8C104.663 23.1667 106.313 23.9 107.446 25C108.58 26.0667 109.146 27.5333 109.146 29.4C109.146 31.9333 108.146 33.9333 106.146 35.4C104.18 36.8333 101.546 37.55 98.2463 37.55ZM121.406 37.55C118.739 37.55 116.406 37.0333 114.406 36C112.439 34.9333 110.922 33.4333 109.856 31.5C108.789 29.5667 108.256 27.2833 108.256 24.65C108.256 22.6833 108.556 20.9167 109.156 19.35C109.756 17.7833 110.622 16.45 111.756 15.35C112.922 14.25 114.322 13.4167 115.956 12.85C117.589 12.25 119.406 11.95 121.406 11.95C122.439 11.95 123.539 12.0833 124.706 12.35C125.872 12.5833 127.022 13 128.156 13.6C128.822 13.9 129.272 14.3333 129.506 14.9C129.772 15.4333 129.872 16 129.806 16.6C129.739 17.1667 129.522 17.6833 129.156 18.15C128.822 18.5833 128.389 18.8833 127.856 19.05C127.322 19.1833 126.722 19.0833 126.056 18.75C125.422 18.3833 124.756 18.1167 124.056 17.95C123.389 17.7833 122.756 17.7 122.156 17.7C121.156 17.7 120.272 17.8667 119.506 18.2C118.739 18.5 118.089 18.95 117.556 19.55C117.056 20.1167 116.656 20.8333 116.356 21.7C116.089 22.5667 115.956 23.5667 115.956 24.7C115.956 26.9 116.489 28.6333 117.556 29.9C118.656 31.1333 120.189 31.75 122.156 31.75C122.756 31.75 123.389 31.6833 124.056 31.55C124.722 31.3833 125.389 31.1167 126.056 30.75C126.722 30.4167 127.322 30.3333 127.856 30.5C128.389 30.6667 128.806 30.9833 129.106 31.45C129.439 31.8833 129.622 32.4 129.656 33C129.722 33.5667 129.622 34.1333 129.356 34.7C129.122 35.2333 128.689 35.65 128.056 35.95C126.922 36.5167 125.789 36.9167 124.656 37.15C123.522 37.4167 122.439 37.55 121.406 37.55ZM137.535 37.55C135.735 37.55 134.118 37.2 132.685 36.5C131.252 35.8 130.135 34.85 129.335 33.65C128.535 32.45 128.135 31.1 128.135 29.6C128.135 27.8 128.602 26.3833 129.535 25.35C130.468 24.2833 131.985 23.5333 134.085 23.1C136.185 22.6333 138.968 22.4 142.435 22.4H145.085V26.3H142.485C140.785 26.3 139.402 26.4 138.335 26.6C137.302 26.7667 136.552 27.0667 136.085 27.5C135.652 27.9333 135.435 28.5333 135.435 29.3C135.435 30.2333 135.752 31 136.385 31.6C137.052 32.2 138.002 32.5 139.235 32.5C140.202 32.5 141.052 32.2833 141.785 31.85C142.552 31.3833 143.152 30.7667 143.585 30C144.018 29.2 144.235 28.3 144.235 27.3V21.55C144.235 20.0833 143.902 19.05 143.235 18.45C142.568 17.8167 141.435 17.5 139.835 17.5C138.935 17.5 137.952 17.6167 136.885 17.85C135.852 18.05 134.702 18.4 133.435 18.9C132.702 19.2333 132.052 19.3167 131.485 19.15C130.918 18.95 130.485 18.6167 130.185 18.15C129.885 17.65 129.735 17.1167 129.735 16.55C129.735 15.95 129.902 15.3833 130.235 14.85C130.568 14.2833 131.118 13.8667 131.885 13.6C133.452 12.9667 134.918 12.5333 136.285 12.3C137.685 12.0667 138.968 11.95 140.135 11.95C142.702 11.95 144.802 12.3333 146.435 13.1C148.102 13.8333 149.352 14.9833 150.185 16.55C151.018 18.0833 151.435 20.0667 151.435 22.5V33.6C151.435 34.8333 151.135 35.7833 150.535 36.45C149.935 37.1167 149.068 37.45 147.935 37.45C146.802 37.45 145.918 37.1167 145.285 36.45C144.685 35.7833 144.385 34.8333 144.385 33.6V31.75L144.735 32.05C144.535 33.1833 144.102 34.1667 143.435 35C142.802 35.8 141.985 36.4333 140.985 36.9C139.985 37.3333 138.835 37.55 137.535 37.55ZM168.217 37.55C166.25 37.55 164.5 37.0667 162.967 36.1C161.467 35.1 160.467 33.7833 159.967 32.15L160.517 30.5V33.6C160.517 34.8333 160.2 35.7833 159.567 36.45C158.934 37.1167 158.017 37.45 156.817 37.45C155.617 37.45 154.684 37.1167 154.017 36.45C153.384 35.7833 153.067 34.8333 153.067 33.6V5.15C153.067 3.88333 153.384 2.93333 154.017 2.3C154.684 1.63333 155.634 1.3 156.867 1.3C158.067 1.3 158.984 1.63333 159.617 2.3C160.284 2.93333 160.617 3.88333 160.617 5.15V17H160.017C160.55 15.5 161.567 14.2833 163.067 13.35C164.567 12.4167 166.284 11.95 168.217 11.95C170.384 11.95 172.267 12.4667 173.867 13.5C175.467 14.5333 176.717 16 177.617 17.9C178.517 19.8 178.967 22.0667 178.967 24.7C178.967 27.3333 178.517 29.6167 177.617 31.55C176.717 33.4833 175.45 34.9667 173.817 36C172.217 37.0333 170.35 37.55 168.217 37.55ZM165.967 31.9C167.034 31.9 167.967 31.6333 168.767 31.1C169.6 30.5667 170.234 29.7833 170.667 28.75C171.134 27.6833 171.367 26.3333 171.367 24.7C171.367 22.2667 170.867 20.4833 169.867 19.35C168.867 18.1833 167.567 17.6 165.967 17.6C164.9 17.6 163.95 17.85 163.117 18.35C162.317 18.85 161.684 19.6333 161.217 20.7C160.75 21.7333 160.517 23.0667 160.517 24.7C160.517 27.1333 161.017 28.95 162.017 30.15C163.017 31.3167 164.334 31.9 165.967 31.9ZM182.453 37.25C181.12 37.25 180.053 36.85 179.253 36.05C178.487 35.25 178.103 34.2167 178.103 32.95C178.103 31.7167 178.487 30.7167 179.253 29.95C180.053 29.15 181.12 28.75 182.453 28.75C183.787 28.75 184.82 29.15 185.553 29.95C186.32 30.7167 186.703 31.7167 186.703 32.95C186.703 34.2167 186.32 35.25 185.553 36.05C184.82 36.85 183.787 37.25 182.453 37.25Z" fill="#1FAB89"/>
</svg>
